# xmcd
#
# Track frame offsets: 
#        150
#        17813
#        41113
#        69488
#        94238
#        117913
#        159725
#        188413
#        211675
#        224400
#        244425
#
# Disc length: 3370 seconds
#
# Revision: 2
# Processed by: cddbd v1.5.1PL0 Copyright (c) Steve Scherf et al.
# Submitted via: ExactAudioCopy v0.95a5
#
DISCID=9c0d280b
DTITLE=Various Artist - tarot music: love
DYEAR=1900
DGENRE=New Age
TTITLE0=The Voyager
TTITLE1=Airlogic
TTITLE2=Biochip
TTITLE3=The Norsemen of the Apocalypse
TTITLE4=Under the Sign of Power
TTITLE5=The Heavenly Cavalsade
TTITLE6=Heavenly Jerusalem
TTITLE7=Plastic Brain
TTITLE8=Damage
TTITLE9=Thrill Seeker
TTITLE10=Voices
EXTD=
EXTT0=
EXTT1=
EXTT2=
EXTT3=
EXTT4=
EXTT5=
EXTT6=
EXTT7=
EXTT8=
EXTT9=
EXTT10=
PLAYORDER=
